# Blender 4.0.2
# www.blender.org
o Cube_Cube.005
v 0.500000 -1.000000 2.000000
v 0.500000 1.000000 2.000000
v -0.500000 1.000000 2.000000
v -0.500000 -1.000000 2.000000
v -0.500000 0.926254 1.852508
v -0.500000 0.926254 -1.852508
v -0.439017 0.926254 -1.852508
v -0.439017 0.926254 1.852508
v -0.500000 -1.000000 -2.000000
v -0.500000 1.000000 -2.000000
v 0.500000 1.000000 -2.000000
v 0.500000 -1.000000 -2.000000
v -0.500000 -0.926254 1.852508
v -0.500000 -0.926254 -1.852508
v -0.462241 0.926254 -1.852508
v -0.462241 0.926254 1.852508
v -0.439017 -0.926254 1.852508
v -0.439017 -0.926254 -1.852508
v -0.462241 -0.926254 1.852508
v -0.462241 -0.926254 -1.852508
vn -0.0000 -0.0000 1.0000
vn -0.0000 -1.0000 -0.0000
vn -0.0000 -0.0000 -1.0000
vn 1.0000 -0.0000 -0.0000
vn -0.0000 1.0000 -0.0000
vn -1.0000 -0.0000 -0.0000
vt 0.375000 0.000000
vt 0.625000 0.000000
vt 0.625000 0.250000
vt 0.375000 0.250000
vt 0.615782 0.259218
vt 0.615782 0.490782
vt 0.375000 0.500000
vt 0.625000 0.500000
vt 0.625000 0.750000
vt 0.375000 0.750000
vt 0.625000 1.000000
vt 0.375000 1.000000
vt 0.125000 0.500000
vt 0.125000 0.750000
vt 0.875000 0.500000
vt 0.875000 0.750000
vt 0.384218 0.259218
vt 0.384218 0.490782
s 1
f 1/1/1 2/2/1 3/3/1 4/4/1
f 5/5/2 6/6/2 7/6/2 8/5/2
f 9/7/3 10/8/3 11/9/3 12/10/3
f 12/10/4 11/9/4 2/11/4 1/12/4
f 4/13/2 9/7/2 12/10/2 1/14/2
f 10/8/5 3/15/5 2/16/5 11/9/5
f 5/5/6 13/17/6 4/4/6 3/3/6
f 13/17/6 14/18/6 9/7/6 4/4/6
f 6/6/6 5/5/6 3/3/6 10/8/6
f 14/18/6 6/6/6 10/8/6 9/7/6
f 8/5/5 7/6/5 15/6/5 16/5/5
f 13/17/3 5/5/3 8/5/3 17/17/3
f 6/6/1 14/18/1 18/18/1 7/6/1
f 14/18/5 13/17/5 17/17/5 18/18/5
f 19/17/6 16/5/6 15/6/6 20/18/6
f 17/17/1 8/5/1 16/5/1 19/17/1
f 7/6/3 18/18/3 20/18/3 15/6/3
f 18/18/2 17/17/2 19/17/2 20/18/2
